<?xml version="1.0" encoding="UTF-8"?>
<svg id="_x32_" xmlns="http://www.w3.org/2000/svg" version="1.1" viewBox="0 0 997 800">
  <!-- Generator: Adobe Illustrator 29.0.0, SVG Export Plug-In . SVG Version: 2.1.0 Build 186)  -->
  <path d="M994.7,118.3c-4.5-22.8-14.6-43.6-28.6-60.9-2.9-3.7-6.1-7.1-9.4-10.4-24.8-25.2-59.7-40.9-97.8-40.9H138.5c-38.1,0-72.8,15.7-97.8,40.8-3.3,3.3-6.5,6.7-9.4,10.4-14,17.2-24.1,38.1-28.5,60.9C1,126.9,0,136.1,0,145.2v509.5c0,19.5,4.1,38.3,11.4,55.3,6.8,16.2,16.8,30.8,29.1,43.1,3.1,3.2,6.2,6,9.5,8.8,24,20,54.8,32,88.2,32h720.5c33.5,0,64.5-12,88.2-32.1,3.3-2.8,6.5-5.6,9.5-8.7,12.2-12.3,22.2-27,29.2-43.1h0c7.3-17.1,11.3-35.8,11.3-55.3V145.3c0-9.2-.9-18.3-2.5-27.1h.2ZM90.7,97.3c12.3-12.4,29-20,47.7-20h720.5c18.8,0,35.5,7.5,47.7,20,2.2,2.2,4.2,4.7,6.1,7.1l-377.6,331.4c-10.4,9.2-23.3,13.7-36.4,13.7s-25.8-4.5-36.4-13.7L84.8,104.3c1.7-2.5,3.7-4.7,5.9-7h0ZM70.9,654.9V178l273.2,240.1-273.1,239.8c0-.9,0-2,0-3h0ZM858.9,722.9H138.5c-12.2,0-23.7-3.3-33.5-9l288.2-252.9,26.9,23.5c22.5,19.7,50.7,29.7,78.6,29.7s56.3-9.9,78.8-29.7l26.9-23.5,288.1,252.9c-9.8,5.7-21.2,9-33.5,9h0ZM926.5,654.9c0,1.1,0,2.1,0,3l-273.1-239.7,273.2-240.1v476.8Z"/>
</svg>