<?xml version="1.0" encoding="UTF-8"?>
<svg id="Layer_1" xmlns="http://www.w3.org/2000/svg" version="1.1" viewBox="0 0 32 32">
  <!-- Generator: Adobe Illustrator 29.0.0, SVG Export Plug-In . SVG Version: 2.1.0 Build 186)  -->
  <path d="M9.4,0C4.2,0,0,4.2,0,9.4v13.2c0,5.2,4.2,9.4,9.4,9.4h13.2c5.2,0,9.4-4.2,9.4-9.4v-13.2C32,4.2,27.8,0,22.6,0h-13.2ZM9.4,2.9h13.2c3.6,0,6.5,2.9,6.5,6.5v13.2c0,3.6-2.9,6.5-6.5,6.5h-13.2c-3.6,0-6.5-2.9-6.5-6.5v-13.2c0-3.6,2.9-6.5,6.5-6.5ZM24.6,6.1c-.7,0-1.3.6-1.3,1.3s.6,1.3,1.3,1.3,1.3-.6,1.3-1.3-.6-1.3-1.3-1.3ZM16,7.3c-4.8,0-8.7,3.9-8.7,8.7s3.9,8.7,8.7,8.7,8.7-3.9,8.7-8.7-3.9-8.7-8.7-8.7ZM16,10.2c3.2,0,5.8,2.6,5.8,5.8s-2.6,5.8-5.8,5.8-5.8-2.6-5.8-5.8,2.6-5.8,5.8-5.8Z"/>
</svg>